<?xml version="1.0" encoding="UTF-8" standalone="no"?>
<svg width="16px" height="16px" viewBox="0 0 16 16" version="1.1" xmlns="http://www.w3.org/2000/svg" xmlns:xlink="http://www.w3.org/1999/xlink">
    <!-- Generator: Sketch 45.2 (43514) - http://www.bohemiancoding.com/sketch -->
    <title>验证 验证码</title>
    <desc>Created with Sketch.</desc>
    <defs></defs>
    <g id="会员中心" stroke="none" stroke-width="1" fill="none" fill-rule="evenodd">
        <g id="注册登录页面-验证码" transform="translate(-25.000000, -361.000000)" stroke="#979797">
            <g id="验证码" transform="translate(17.000000, 349.000000)">
                <g id="icon/验证码" transform="translate(8.000000, 12.000000)">
                    <g id="Group" transform="translate(1.411765, 0.409958)">
                        <path d="M6.56934283,15.1993372 C4.27244275,15.1993372 0,11.8012553 0,8.58808948 L0,2.45345882 C0,2.30471317 0.125324938,2.18432477 0.28104855,2.18144822 L0.652903397,2.17528683 C0.666877879,2.17528683 2.12553173,2.14611301 3.62982071,1.55484209 C5.17311947,0.949188401 6.16747904,0.252728418 6.1777604,0.245731897 L6.39840133,0.090824855 C6.50000862,0.0198574979 6.6350396,0.0195234466 6.73698094,0.090008285 L6.96049843,0.245731897 C6.9703715,0.252728418 7.96595592,0.949188401 9.50845667,1.55484209 C11.0135437,2.14611301 12.4722161,2.17528683 12.4874154,2.17528683 L12.8563937,2.18144822 C13.0121359,2.18432477 13.1374423,2.30471317 13.1374423,2.45345882 L13.1403188,8.58808948 C13.1403188,11.8012553 8.86787606,15.1993372 6.56934283,15.1993372 Z" id="验证码" stroke-width="0.8"></path>
                        <polyline id="Path-14" stroke-linecap="round" points="4.25012843 7.56459736 6.13877568 9.39860861 9.63372138 5.83809971"></polyline>
                    </g>
                </g>
            </g>
        </g>
    </g>
</svg>