<?xml version="1.0" encoding="UTF-8" standalone="no"?>
<svg width="156px" height="21px" viewBox="0 0 156 21" version="1.1" xmlns="http://www.w3.org/2000/svg" xmlns:xlink="http://www.w3.org/1999/xlink">
    <!-- Generator: Sketch 46.2 (44496) - http://www.bohemiancoding.com/sketch -->
    <title>品牌Logo</title>
    <desc>Created with Sketch.</desc>
    <defs>
        <polygon id="path-1" points="1.48364508e-19 1.23744 1.48364508e-19 14.8900114 8.65895789 14.8900114 8.65895789 1.23744"></polygon>
        <polygon id="path-3" points="14.3624 15.0857143 0.370294737 15.0857143 0.370294737 1.04269714 14.3624 1.04269714 14.3624 15.0857143"></polygon>
        <polygon id="path-5" points="0.583039386 15.0857143 16.9891364 15.0857143 16.9891364 1.04379429 0.583039386 1.04379429 0.583039386 15.0857143"></polygon>
        <polygon id="path-7" points="0.522052632 15.0857143 11.3626842 15.0857143 11.3626842 1.23744 0.522052632 1.23744 0.522052632 15.0857143"></polygon>
        <polygon id="path-9" points="0.300231579 0.730971429 8.9596 0.730971429 8.9596 3.04416 0.300231579 3.04416 0.300231579 0.730971429"></polygon>
        <polygon id="path-11" points="0 19.8401829 155.159789 19.8401829 155.159789 1.37115429 0 1.37115429"></polygon>
    </defs>
    <g id="Symbols" stroke="none" stroke-width="1" fill="none" fill-rule="evenodd">
        <g id="品牌Logo">
            <g id="Page-1">
                <g id="Group-3" transform="translate(0.000000, 4.754469)">
                    <mask id="mask-2" fill="white">
                        <use xlink:href="#path-1"></use>
                    </mask>
                    <g id="Clip-2"></g>
                    <path d="M-0.000410526316,1.60909714 C-0.000410526316,1.41298286 0.155589474,1.23744 0.369063158,1.23744 L8.29085263,1.23744 C8.50295789,1.23744 8.65895789,1.41298286 8.65895789,1.60909714 L8.65895789,3.20818286 C8.65895789,3.40292571 8.50295789,3.57846857 8.29085263,3.57846857 L2.5298,3.57846857 L2.5298,7.24429714 L7.33569474,7.24429714 C7.53137895,7.24429714 7.70653684,7.41984 7.70653684,7.61595429 L7.70653684,9.21504 C7.70653684,9.40978286 7.53137895,9.58532571 7.33569474,9.58532571 L2.5298,9.58532571 L2.5298,14.5197257 C2.5298,14.71584 2.35464211,14.8900114 2.16032632,14.8900114 L0.369063158,14.8900114 C0.155589474,14.8900114 -0.000410526316,14.71584 -0.000410526316,14.5197257 L-0.000410526316,1.60909714 Z" id="Fill-1" fill="#3E3A39" mask="url(#mask-2)"></path>
                </g>
                <path d="M10.8452842,6.36356571 C10.8452842,6.16745143 11.0012842,5.99190857 11.2147579,5.99190857 L13.0060211,5.99190857 C13.2003368,5.99190857 13.3754947,6.16745143 13.3754947,6.36356571 L13.3754947,17.3048229 L18.3373895,17.3048229 C18.5522316,17.3048229 18.7082316,17.4803657 18.7082316,17.6751086 L18.7082316,19.2741943 C18.7082316,19.4703086 18.5522316,19.64448 18.3373895,19.64448 L11.2147579,19.64448 C11.0012842,19.64448 10.8452842,19.4703086 10.8452842,19.2741943 L10.8452842,6.36356571 Z" id="Fill-4" fill="#3E3A39"></path>
                <g id="Group-8" transform="translate(19.157895, 4.754469)">
                    <mask id="mask-4" fill="white">
                        <use xlink:href="#path-3"></use>
                    </mask>
                    <g id="Clip-7"></g>
                    <path d="M7.35608421,12.5503543 C9.80829474,12.5503543 11.8321895,10.5412114 11.8321895,8.08361143 C11.8321895,5.62601143 9.80829474,3.57846857 7.35608421,3.57846857 C4.90524211,3.57846857 2.90050526,5.62601143 2.90050526,8.08361143 C2.90050526,10.5412114 4.90524211,12.5503543 7.35608421,12.5503543 M7.35608421,1.04269714 C11.2478737,1.04269714 14.3624,4.18326857 14.3624,8.08361143 C14.3624,11.9839543 11.2478737,15.0861257 7.35608421,15.0861257 C3.46566316,15.0861257 0.370294737,11.9839543 0.370294737,8.08361143 C0.370294737,4.18326857 3.46566316,1.04269714 7.35608421,1.04269714" id="Fill-6" fill="#3E3A39" mask="url(#mask-4)"></path>
                </g>
                <g id="Group-11" transform="translate(34.210526, 4.754469)">
                    <mask id="mask-6" fill="white">
                        <use xlink:href="#path-5"></use>
                    </mask>
                    <g id="Clip-10"></g>
                    <path d="M0.603610526,1.70619429 C0.524242105,1.43328 0.681610526,1.23853714 0.953926316,1.23853714 L2.74382105,1.23853714 C2.89982105,1.23853714 3.05582105,1.37430857 3.09413684,1.51145143 L5.1194,9.29293714 L5.19466316,9.29293714 L8.29003158,1.25773714 C8.32971579,1.14116571 8.42550526,1.04379429 8.62118947,1.04379429 L8.97150526,1.04379429 C9.16582105,1.04379429 9.26161053,1.14116571 9.30129474,1.25773714 L12.4158211,9.29293714 L12.4924526,9.29293714 L14.4780316,1.51145143 C14.5177158,1.37430857 14.6737158,1.23853714 14.8283474,1.23853714 L16.6196105,1.23853714 C16.8905579,1.23853714 17.0479263,1.43328 16.9685579,1.70619429 L13.2902421,14.8129371 C13.2532947,14.9679086 13.0972947,15.0858514 12.9426632,15.0858514 L12.6292947,15.0858514 C12.4541368,15.0858514 12.3364526,14.98848 12.2995053,14.8719086 L8.81550526,6.03579429 L8.71834737,6.03579429 L5.27266316,14.8719086 C5.21655789,14.98848 5.13718947,15.0858514 4.94287368,15.0858514 L4.63224211,15.0858514 C4.47624211,15.0858514 4.32024211,14.9679086 4.28055789,14.8129371 L0.603610526,1.70619429 Z" id="Fill-9" fill="#3E3A39" mask="url(#mask-6)"></path>
                </g>
                <path d="M53.2704421,6.36356571 C53.2704421,6.16745143 53.4264421,5.99190857 53.6412842,5.99190857 L61.5617053,5.99190857 C61.7751789,5.99190857 61.9298105,6.16745143 61.9298105,6.36356571 L61.9298105,7.96265143 C61.9298105,8.15739429 61.7751789,8.33293714 61.5617053,8.33293714 L55.8006526,8.33293714 L55.8006526,11.53248 L60.6065474,11.53248 C60.8022316,11.53248 60.9773895,11.7066514 60.9773895,11.9027657 L60.9773895,13.5210514 C60.9773895,13.7349943 60.8022316,13.8913371 60.6065474,13.8913371 L55.8006526,13.8913371 L55.8006526,17.3048229 L61.5617053,17.3048229 C61.7751789,17.3048229 61.9298105,17.4803657 61.9298105,17.6751086 L61.9298105,19.2741943 C61.9298105,19.4703086 61.7751789,19.64448 61.5617053,19.64448 L53.6412842,19.64448 C53.4264421,19.64448 53.2704421,19.4703086 53.2704421,19.2741943 L53.2704421,6.36356571 Z" id="Fill-12" fill="#3E3A39"></path>
                <path d="M70.2086211,12.2135314 C71.2404105,12.2135314 72.1353579,11.3179886 72.1353579,10.22496 C72.1353579,9.19090286 71.2404105,8.33238857 70.2086211,8.33238857 L67.0379895,8.33238857 L67.0379895,12.2135314 L70.2086211,12.2135314 Z M64.4872526,6.36301714 C64.4872526,6.16827429 64.6446211,5.99273143 64.8567263,5.99273143 L70.4220947,5.99273143 C72.7579895,5.99273143 74.6669368,7.86473143 74.6669368,10.18656 C74.6669368,11.9803886 73.4777789,13.4423314 71.7850421,14.1253029 L74.4520947,19.0789029 C74.5875684,19.3326171 74.4520947,19.6439314 74.1195684,19.6439314 L72.0765158,19.6439314 C71.9013579,19.6439314 71.8042,19.5479314 71.7672526,19.46976 L69.1768316,14.3008457 L67.0160947,14.3008457 L67.0160947,19.2736457 C67.0160947,19.46976 66.8409368,19.6439314 66.6466211,19.6439314 L64.8567263,19.6439314 C64.6446211,19.6439314 64.4872526,19.46976 64.4872526,19.2736457 L64.4872526,6.36301714 Z" id="Fill-14" fill="#3E3A39"></path>
                <path d="M83.0630211,12.312 C84.1536526,12.312 84.9897579,11.4342857 84.9897579,10.2836571 C84.9897579,9.2112 84.1536526,8.39245714 83.0630211,8.39245714 L79.8663895,8.39245714 L79.8663895,12.312 L83.0630211,12.312 Z M77.3375474,6.36411429 C77.3375474,6.168 77.4935474,5.99245714 77.7070211,5.99245714 L83.1396526,5.99245714 C85.5343895,5.99245714 87.4994421,7.94262857 87.4994421,10.3028571 C87.4994421,12.7220571 85.5343895,14.6914286 83.1601789,14.6914286 L79.8663895,14.6914286 L79.8663895,19.2747429 C79.8663895,19.4694857 79.6912316,19.6450286 79.4982842,19.6450286 L77.7070211,19.6450286 C77.4935474,19.6450286 77.3375474,19.4694857 77.3375474,19.2747429 L77.3375474,6.36411429 Z" id="Fill-16" fill="#3E3A39"></path>
                <path d="M89.6645579,6.36356571 C89.6645579,6.16745143 89.8205579,5.99190857 90.0354,5.99190857 L91.8252947,5.99190857 C92.0196105,5.99190857 92.1947684,6.16745143 92.1947684,6.36356571 L92.1947684,17.3048229 L97.1580316,17.3048229 C97.3715053,17.3048229 97.5275053,17.4803657 97.5275053,17.6751086 L97.5275053,19.2741943 C97.5275053,19.4703086 97.3715053,19.64448 97.1580316,19.64448 L90.0354,19.64448 C89.8205579,19.64448 89.6645579,19.4703086 89.6645579,19.2741943 L89.6645579,6.36356571 Z" id="Fill-18" fill="#3E3A39"></path>
                <g id="Group-22" transform="translate(98.526316, 4.754469)">
                    <mask id="mask-8" fill="white">
                        <use xlink:href="#path-7"></use>
                    </mask>
                    <g id="Clip-21"></g>
                    <path d="M0.522052632,1.60909714 C0.522052632,1.41298286 0.697210526,1.23744 0.892894737,1.23744 L2.74163158,1.23744 C2.95647368,1.23744 3.11110526,1.41298286 3.11110526,1.60909714 L3.11110526,9.74166857 C3.11110526,11.3997257 4.24005263,12.5503543 5.93142105,12.5503543 C7.62552632,12.5503543 8.775,11.3997257 8.775,9.76086857 L8.775,1.60909714 C8.775,1.41298286 8.931,1.23744 9.14447368,1.23744 L10.9918421,1.23744 C11.1875263,1.23744 11.3626842,1.41298286 11.3626842,1.60909714 L11.3626842,9.87881143 C11.3626842,12.8424686 9.00626316,15.0861257 5.93142105,15.0861257 C2.87847368,15.0861257 0.522052632,12.8424686 0.522052632,9.87881143 L0.522052632,1.60909714 Z" id="Fill-20" fill="#3E3A39" mask="url(#mask-8)"></path>
                </g>
                <path d="M112.504053,18.31872 C112.308368,18.1623771 112.231737,18.0458057 112.406895,17.73312 L113.106158,16.52352 C113.262158,16.2506057 113.593316,16.2506057 113.768474,16.3877486 C114.566263,16.9925486 115.442053,17.5973486 116.707842,17.5973486 C117.719105,17.5973486 118.477211,16.9335771 118.477211,16.0956343 C118.477211,15.1013486 117.641105,14.4170057 116.007211,13.7546057 C114.177632,13.0140343 112.348053,11.8442057 112.348053,9.54294857 C112.348053,7.80534857 113.633,5.79757714 116.727,5.79757714 C118.711211,5.79757714 120.230158,6.81243429 120.618789,7.10454857 C120.813105,7.22112 120.871947,7.55300571 120.735105,7.74774857 L119.996158,8.85997714 C119.838789,9.09312 119.547316,9.24946286 119.314684,9.09312 C118.477211,8.56786286 117.679421,8.02203429 116.610684,8.02203429 C115.499526,8.02203429 114.897421,8.64603429 114.897421,9.38523429 C114.897421,10.30272 115.617211,10.92672 117.195,11.5712914 C119.080684,12.3310629 121.260579,13.46112 121.260579,15.9776914 C121.260579,17.9868343 119.529526,19.8396343 116.785842,19.8396343 C114.332263,19.8396343 113.067842,18.8055771 112.504053,18.31872" id="Fill-23" fill="#3E3A39"></path>
                <g id="Group-27" transform="translate(21.894737, 0.640183)">
                    <mask id="mask-10" fill="white">
                        <use xlink:href="#path-9"></use>
                    </mask>
                    <g id="Clip-26"></g>
                    <path d="M8.68317895,3.04416 L0.576652632,3.04416 C0.423389474,3.04416 0.300231579,2.92073143 0.300231579,2.76713143 L0.300231579,1.00896 C0.300231579,0.85536 0.423389474,0.73056 0.576652632,0.73056 L8.68317895,0.73056 C8.83507368,0.73056 8.9596,0.85536 8.9596,1.00896 L8.9596,2.76713143 C8.9596,2.92073143 8.83507368,3.04416 8.68317895,3.04416" id="Fill-25" fill="#3E3A39" mask="url(#mask-10)"></path>
                </g>
                <path d="M125.871611,15.9696 L125.503505,14.7737143 C125.482979,14.7037714 125.506242,14.6283429 125.560979,14.5803429 C127.127821,13.2473143 128.296453,11.6811429 129.083295,9.90788571 C129.124347,9.81325714 129.233821,9.77074286 129.326874,9.816 L130.416137,10.3385143 C130.507821,10.3824 130.548874,10.4893714 130.509189,10.5826286 C130.219084,11.2518857 129.864663,11.9060571 129.444558,12.5218286 L129.444558,19.6546286 C129.444558,19.7574857 129.362453,19.8397714 129.259821,19.8397714 L128.028242,19.8397714 C127.925611,19.8397714 127.842137,19.7574857 127.842137,19.6546286 L127.842137,14.5076571 C127.328979,15.0493714 126.767926,15.5664 126.168558,16.0587429 C126.067295,16.1437714 125.909926,16.0957714 125.871611,15.9696" id="Fill-28" fill="#3E3A39"></path>
                <path d="M128.901021,6.98962286 L128.901021,5.99533714 C128.901021,5.89385143 128.984495,5.81019429 129.085758,5.81019429 L130.272179,5.81019429 C130.374811,5.81019429 130.458284,5.89385143 130.458284,5.99533714 L130.458284,6.98962286 L134.343232,6.98962286 L134.343232,5.99533714 C134.343232,5.89385143 134.425337,5.81019429 134.527968,5.81019429 L135.715758,5.81019429 C135.818389,5.81019429 135.900495,5.89385143 135.900495,5.99533714 L135.900495,6.98962286 L138.797442,6.98962286 C138.901442,6.98962286 138.983547,7.07328 138.983547,7.17476571 L138.983547,8.28836571 C138.983547,8.39122286 138.901442,8.47488 138.797442,8.47488 L135.900495,8.47488 L135.900495,9.33202286 C135.900495,9.43350857 135.818389,9.51716571 135.715758,9.51716571 L134.527968,9.51716571 C134.425337,9.51716571 134.343232,9.43350857 134.343232,9.33202286 L134.343232,8.47488 L130.458284,8.47488 L130.458284,9.33202286 C130.458284,9.43350857 130.374811,9.51716571 130.272179,9.51716571 L129.085758,9.51716571 C128.984495,9.51716571 128.901021,9.43350857 128.901021,9.33202286 L128.901021,8.47488 L126.001337,8.47488 C125.900074,8.47488 125.8166,8.39122286 125.8166,8.28836571 L125.8166,7.17476571 C125.8166,7.07328 125.900074,6.98962286 126.001337,6.98962286 L128.901021,6.98962286 Z" id="Fill-30" fill="#3E3A39"></path>
                <path d="M134.267832,19.5675429 C133.178568,19.5675429 132.635305,19.0066286 132.635305,17.8861714 L132.635305,15.9318857 C132.153621,16.1526857 131.671937,16.3721143 131.188884,16.5709714 C131.105411,16.6052571 131.010989,16.5737143 130.963095,16.4996571 L130.295305,15.4834286 C130.230989,15.3860571 130.273411,15.2544 130.381516,15.2105143 C131.180674,14.8882286 131.940147,14.5536 132.635305,14.2189714 L132.635305,10.1773714 C132.635305,10.0745143 132.717411,9.99222857 132.820042,9.99222857 L134.037937,9.99222857 C134.1392,9.99222857 134.222674,10.0745143 134.222674,10.1773714 L134.222674,13.3563429 C135.622568,12.5019429 136.7912,11.5776 137.721726,10.5860571 C137.794253,10.5106286 137.911937,10.5092571 137.984463,10.5833143 L138.821937,11.4336 C138.895832,11.5076571 138.895832,11.6269714 138.820568,11.6996571 C137.505516,12.9942857 135.976989,14.1312 134.222674,15.1131429 L134.222674,17.5378286 C134.222674,17.9465143 134.388253,18.1590857 134.720779,18.1590857 L136.792568,18.1590857 C137.126463,18.1590857 137.367305,18.0534857 137.5192,17.8395429 C137.684779,17.6297143 137.801095,17.0454857 137.865411,16.0827429 C137.873621,15.9620571 137.992674,15.8770286 138.107621,15.9126857 L139.233832,16.2788571 C139.315937,16.3062857 139.370674,16.3913143 139.362463,16.4790857 C139.2092,17.9629714 138.957411,18.8502857 138.622147,19.1437714 C138.289621,19.4166857 137.790147,19.5675429 137.093621,19.5675429 L134.267832,19.5675429 Z" id="Fill-32" fill="#3E3A39"></path>
                <path d="M145.402263,5.99588571 L145.402263,7.70331429 L148.655,7.70331429 C148.757632,7.70331429 148.841105,7.78834286 148.841105,7.88982857 C148.838368,12.8310857 148.763105,16.7341714 148.612579,17.9012571 C148.462053,19.008 147.706684,19.5675429 146.376579,19.5675429 C146.153526,19.5675429 145.790895,19.5428571 145.311947,19.4921143 C145.235316,19.4838857 145.168263,19.4290286 145.147737,19.3549714 L144.860368,18.3003429 C144.826158,18.1741714 144.931526,18.0548571 145.061526,18.0672 C145.459737,18.1083429 145.810053,18.1289143 146.119316,18.1289143 C146.694053,18.1289143 147.040263,17.7956571 147.147,17.1593143 C147.222263,16.4777143 147.268789,13.248 147.298895,9.24754286 L145.402263,9.24754286 C145.314684,13.5428571 144.767316,17.6653714 142.992474,19.7732571 C142.925421,19.8528 142.803632,19.8582857 142.725632,19.7897143 L141.808789,18.9750857 C141.733526,18.9092571 141.726684,18.7981714 141.791,18.7213714 C143.342789,16.8658286 143.757421,13.0916571 143.831316,9.24754286 L142.207,9.24754286 C142.104368,9.24754286 142.020895,9.16525714 142.020895,9.0624 L142.020895,7.88845714 C142.020895,7.7856 142.104368,7.70331429 142.207,7.70331429 L143.831316,7.70331429 L143.831316,5.99588571 C143.831316,5.89302857 143.913421,5.81074286 144.016053,5.81074286 L145.217526,5.81074286 C145.318789,5.81074286 145.402263,5.89302857 145.402263,5.99588571" id="Fill-34" fill="#3E3A39"></path>
                <mask id="mask-12" fill="white">
                    <use xlink:href="#path-11"></use>
                </mask>
                <g id="Clip-37"></g>
                <path d="M151.424,18.0532114 L153.616211,18.0532114 L153.616211,9.20338286 L151.424,9.20338286 L151.424,18.0532114 Z M149.913263,7.88818286 L149.913263,19.3821257 C149.913263,19.4849829 149.996737,19.5672686 150.099368,19.5672686 L151.425368,19.5672686 L153.616211,19.5672686 L154.975053,19.5672686 C155.076316,19.5672686 155.158421,19.4849829 155.158421,19.3821257 L155.158421,7.88818286 C155.158421,7.78532571 155.076316,7.70304 154.975053,7.70304 L150.099368,7.70304 C149.996737,7.70304 149.913263,7.78532571 149.913263,7.88818286 L149.913263,7.88818286 Z" id="Fill-36" fill="#3E3A39" mask="url(#mask-12)"></path>
            </g>
        </g>
    </g>
</svg>